<svg width="16" xmlns="http://www.w3.org/2000/svg" height="15" fill="none"><defs><clipPath id="a" class="frame-clip frame-clip-def"><rect rx="0" ry="0" width="16" height="15"/></clipPath></defs><g clip-path="url(#a)"><g class="fills"><rect rx="0" ry="0" width="16" height="15" class="frame-background"/></g><g style="fill: rgb(0, 0, 0);" class="frame-children"><path d="M13.397 5.625c.95 0 2.603.85 2.603 1.875 0 1.055-1.653 1.875-2.603 1.875h-3.239l-2.791 5.153a.881.881 0 0 1-.773.472H5.033c-.294 0-.508-.299-.427-.598l1.361-5.027H3.111l-1.2 1.688a.44.44 0 0 1-.355.187H.389A.4.4 0 0 1 0 10.84c0-.038.006-.076.014-.114L.889 7.5.014 4.274A.405.405 0 0 1 0 4.16a.4.4 0 0 1 .389-.41h1.167a.44.44 0 0 1 .355.187l1.2 1.688h2.858L4.608.598C4.525.299 4.739 0 5.033 0h1.561c.32 0 .614.182.773.472l2.791 5.153h3.239Z" style="fill: rgb(94, 94, 96); fill-opacity: 1;" class="fills"/></g></g></svg>