<svg width="14" xmlns="http://www.w3.org/2000/svg" height="12" fill="none"><defs><clipPath id="a" class="frame-clip frame-clip-def"><rect rx="0" ry="0" width="14" height="12"/></clipPath></defs><g clip-path="url(#a)"><g class="fills"><rect rx="0" ry="0" width="14" height="12" class="frame-background"/></g><g style="fill: rgb(0, 0, 0);" class="frame-children"><path d="M7.702.422a.778.778 0 0 0-.7-.422.783.783 0 0 0-.7.422L4.74 3.523l-3.491.497a.77.77 0 0 0-.624.508.736.736 0 0 0 .192.767l2.532 2.416-.598 3.415a.74.74 0 0 0 .314.733.804.804 0 0 0 .821.054l3.119-1.605 3.118 1.605a.802.802 0 0 0 .822-.054.74.74 0 0 0 .313-.733l-.6-3.415 2.533-2.416a.732.732 0 0 0 .192-.767.773.773 0 0 0-.625-.508l-3.493-.497L7.702.422Z" style="fill: rgb(199, 200, 204); fill-opacity: 1;" class="fills"/></g></g></svg>